<?xml version="1.0" encoding="UTF-8"?>
<svg width="36px" height="37px" viewBox="0 0 36 37" version="1.1" xmlns="http://www.w3.org/2000/svg" xmlns:xlink="http://www.w3.org/1999/xlink">
    <!-- Generator: Sketch 61 (89581) - https://sketch.com -->
    <title>map_locationCrew</title>
    <desc>Created with Sketch.</desc>
    <defs>
        <linearGradient x1="-25.4369877%" y1="103.351287%" x2="74.3589826%" y2="12.8067026%" id="linearGradient-1">
            <stop stop-color="#231F20" offset="0%"></stop>
            <stop stop-color="#3A3637" stop-opacity="0.9" offset="32%"></stop>
            <stop stop-color="#807E7F" stop-opacity="0.58" offset="62%"></stop>
            <stop stop-color="#F6F6F6" stop-opacity="0.04" offset="91%"></stop>
            <stop stop-color="#FFFFFF" stop-opacity="0" offset="93%"></stop>
        </linearGradient>
        <linearGradient x1="49.9476475%" y1="85.6122449%" x2="49.9476475%" y2="0.272108844%" id="linearGradient-2">
            <stop stop-color="#808080" offset="35%"></stop>
            <stop stop-color="#535353" offset="100%"></stop>
        </linearGradient>
    </defs>
    <g id="map_locationCrew" stroke="none" stroke-width="1" fill="none" fill-rule="evenodd" transform="translate(0.000000, 0.000000)">
        <g id="Artboard-1-copy-5" transform="translate(6.000000, 1.000000)" fill-rule="nonzero">
            <polygon id="Path" fill="url(#linearGradient-1)" points="12.04 33.07 27.73 21.78 19.36 16.36 12.04 32.21"></polygon>
            <path d="M12,31.05 C10.41,28.19 7.34,22.55 7.3,22.48 L7.06,22 L3,22 C2.4439473,21.8707799 2.01421503,21.4293276 1.9,20.87 L1.9,2.54 C1.9,1.99 2.63,1.67 3.03,1.65 L21.29,1.65 C21.8400773,1.76267328 22.2261972,2.25911315 22.2,2.82 L22.2,20.87 C22.1168511,21.4379697 21.6836281,21.8912493 21.12,22 L17.07,22 L16.78,22.52 C16.75,22.55 13.65,28.18 12,31.05 Z" id="Path" fill="url(#linearGradient-2)"></path>
            <path d="M21.14,2.65 C21.1758786,2.69974557 21.1967052,2.75875424 21.2,2.82 L21.2,20.82 C21.1444146,20.8912734 21.0767145,20.9522035 21,21 L16.48,21 L15.91,22 C14.91,23.84 13.29,26.76 12.04,29 C10.73,26.63 9.04,23.53 8.22,22 L7.65,21 L3.1,21 C3.01200216,20.9388421 2.93718847,20.8606278 2.88,20.77 L2.88,2.77 C2.91315894,2.7236987 2.9536987,2.68315894 3,2.65 L21.1,2.65 M21.25,0.649962485 L3,0.649962485 C1.91339537,0.643588246 0.997869487,1.4597882 0.88,2.54 L0.88,20.83 C0.981943215,21.9648767 1.86780752,22.8716341 3,23 L6.48,23 C6.48,23 11.33,31.9 12.06,33.11 C12.78,31.85 17.66,23 17.66,23 L21.12,23 C22.2274488,22.8978448 23.1031574,22.017926 23.2,20.91 L23.2,2.91 C23.2316797,1.79743183 22.3975899,0.849800954 21.29,0.74 L21.25,0.649962485 Z" id="Shape" fill="#A7A9AC"></path>
            <path d="M21.26,1.65 C21.8197129,1.753614 22.2194092,2.25110838 22.2,2.82 L22.2,20.87 C22.1168511,21.4379697 21.6836281,21.8912493 21.12,22 L17.07,22 L16.78,22.52 C16.78,22.59 13.65,28.22 12.04,31.09 C10.45,28.23 7.38,22.59 7.34,22.52 L7.06,22 L3,22 C2.4439473,21.8707799 2.01421503,21.4293276 1.9,20.87 L1.9,2.54 C1.9,1.99 2.64,1.67 2.98,1.65 L21.28,1.65 M21.28,0.649962485 L3,0.649962485 C1.91339537,0.643588246 0.997869487,1.4597882 0.88,2.54 L0.88,20.83 C0.981943215,21.9648767 1.86780752,22.8716341 3,23 L6.48,23 C6.48,23 11.33,31.9 12.06,33.11 C12.78,31.85 17.66,23 17.66,23 L21.12,23 C22.2274488,22.8978448 23.1031574,22.017926 23.2,20.91 L23.2,2.91 C23.2316797,1.79743183 22.3975899,0.849800954 21.29,0.74 L21.28,0.649962485 Z" id="Shape" fill="#231F20"></path>
            <path d="M12.47,10.51 C11.7354613,10.51 11.14,11.1054613 11.14,11.84 L11.14,14.64 L19.0000379,14.64 L19.0000379,11.8 C19.0026653,11.4481848 18.8647718,11.1098629 18.6169344,10.8601479 C18.3690969,10.6104328 18.0318253,10.47 17.68,10.47 L12.47,10.51 Z" id="Path" stroke="#2B2B2B" fill="#FFFFFF"></path>
            <path d="M15.17,11.29 C16.7967825,11.1365774 18.0015987,9.70947029 17.88,8.08 C18.0015987,6.45052971 16.7967825,5.02342261 15.17,4.87 C13.5432175,5.02342261 12.3384013,6.45052971 12.46,8.08 C12.3650228,9.70072766 13.5563014,11.1117993 15.17,11.29 L15.17,11.29 Z" id="Path" stroke="#2B2B2B" fill="#FFFFFF"></path>
            <path d="M6.71,15.16 C5.97934887,15.1599793 5.38549362,15.7493695 5.38,16.48 L5.38,19.28 L13.26,19.28 L13.26,16.44 C13.26,16.0872621 13.1198754,15.7489714 12.870452,15.499548 C12.6210286,15.2501246 12.2827379,15.11 11.93,15.11 L6.71,15.16 Z" id="Path" stroke="#2B2B2B" fill="#FFFFFF"></path>
            <path d="M9.41,15.93 C11.0367825,15.7765774 12.2415987,14.3494703 12.12,12.72 C12.2415987,11.0905297 11.0367825,9.66342261 9.41,9.51 C7.78321754,9.66342261 6.57840126,11.0905297 6.7,12.72 C6.61015764,14.3390142 7.79885177,15.7470246 9.41,15.93 Z" id="Path" stroke="#2B2B2B" fill="#FFFFFF"></path>
        </g>
    </g>
</svg>