<?xml version="1.0" encoding="UTF-8"?>
<svg width="36px" height="36px" viewBox="0 0 36 36" version="1.1" xmlns="http://www.w3.org/2000/svg" xmlns:xlink="http://www.w3.org/1999/xlink">
    <!-- Generator: Sketch 61 (89581) - https://sketch.com -->
    <title>map_serviceAddress_default</title>
    <desc>Created with Sketch.</desc>
    <defs>
        <linearGradient x1="-25.4369877%" y1="103.351287%" x2="74.3589826%" y2="12.8067026%" id="linearGradient-1">
            <stop stop-color="#231F20" offset="0%"></stop>
            <stop stop-color="#3A3637" stop-opacity="0.9" offset="32%"></stop>
            <stop stop-color="#807E7F" stop-opacity="0.58" offset="62%"></stop>
            <stop stop-color="#F6F6F6" stop-opacity="0.04" offset="91%"></stop>
            <stop stop-color="#FFFFFF" stop-opacity="0" offset="93%"></stop>
        </linearGradient>
        <linearGradient x1="49.9938126%" y1="0.101282917%" x2="49.9938126%" y2="96.387576%" id="linearGradient-2">
            <stop stop-color="#FFFFFF" offset="0%"></stop>
            <stop stop-color="#2D83A8" offset="0%"></stop>
            <stop stop-color="#2A799A" offset="36%"></stop>
            <stop stop-color="#22627D" offset="93%"></stop>
        </linearGradient>
    </defs>
    <g id="map_serviceAddress_default" stroke="none" stroke-width="1" fill="none" fill-rule="evenodd">
        <g id="Artboard-1-copy-2" transform="translate(8.000000, 1.000000)" fill-rule="nonzero">
            <polygon id="Path" fill="url(#linearGradient-1)" points="10.04 33.07 25.73 21.78 17.36 16.36 10.04 32.21"></polygon>
            <path d="M10,31.11 C4.77,22.05 0,10.33 2.76,5.12 C4.37,2.12 7.6,1.49 10.04,1.49 C12.48,1.49 15.71,2.12 17.31,5.12 C20.1,10.34 15.31,22.05 10,31.11 Z" id="Path" fill="url(#linearGradient-2)"></path>
            <path d="M10,2.49 C13.14,2.49 15.29,3.49 16.39,5.59 C18.74,9.91 15.08,20 10,29.09 C5,20 1.34,9.91 3.65,5.59 C4.75,3.53 6.9,2.49 10.04,2.49 M10.04,0.49 C6.16,0.49 3.33,1.93 1.88,4.65 C-2.12,12.24 8.06,29.8 10.04,33.07 C12.04,29.8 22.24,12.24 18.2,4.65 C16.74,1.93 13.92,0.49 10,0.49 L10.04,0.49 Z" id="Shape" fill="#76A9BE"></path>
            <path d="M10,1.49 C12.43,1.49 15.67,2.12 17.27,5.12 C20.06,10.34 15.27,22.05 10,31.12 C4.77,22.05 0,10.34 2.76,5.12 C4.37,2.12 7.6,1.49 10.04,1.49 M10.04,0.49 C6.16,0.49 3.33,1.93 1.88,4.65 C-2.12,12.24 8.06,29.8 10.04,33.07 C12.04,29.8 22.24,12.24 18.2,4.65 C16.74,1.93 13.92,0.49 10,0.49 L10.04,0.49 Z" id="Shape" fill="#231F20"></path>
            <path d="M9.37,16.36 L9.37,14.72 C7.07484447,14.4216396 5.26836041,12.6151555 4.97,10.32 L3.33,10.32 L3.33,9 L5,9 C5.29836041,6.70484447 7.10484447,4.89836041 9.4,4.6 L9.4,3 L10.74,3 L10.74,4.59 C13.0244337,4.90279029 14.8132775,6.71214829 15.1,9 L16.75,9 L16.75,10.33 L15.1,10.33 C14.8059828,12.6235712 13.0028963,14.430765 10.71,14.73 L10.71,16.37 L9.37,16.36 Z M10.71,12.44 C11.7562587,12.1867383 12.5716879,11.3674445 12.82,10.32 L10.71,10.32 L10.71,12.44 Z M7.26,10.32 C7.50831208,11.3674445 8.3237413,12.1867383 9.37,12.44 L9.37,10.32 L7.26,10.32 Z M12.82,9 C12.5716879,7.95255555 11.7562587,7.13326173 10.71,6.88 L10.71,9 L12.82,9 Z M9.37,9 L9.37,6.87 C8.32105557,7.12490791 7.50500108,7.9486975 7.26,9 L9.37,9 Z" id="Shape" fill="#FFFFFF"></path>
            <path d="M10.46,3.2 L10.46,4.82 C12.8110708,5.02476021 14.6752398,6.88892917 14.88,9.24 L16.5,9.24 L16.5,10.07 L14.88,10.07 C14.6752398,12.4210708 12.8110708,14.2852398 10.46,14.49 L10.46,16.11 L9.62,16.11 L9.62,14.49 C7.26709156,14.2891871 5.40081294,12.4229084 5.2,10.07 L3.58,10.07 L3.58,9.24 L5.2,9.24 C5.40081294,6.88709156 7.26709156,5.02081294 9.62,4.82 L9.62,3.2 L10.46,3.2 M10.46,9.2 L13.12,9.2 C12.9350046,7.81291384 11.8463822,6.7201989 10.46,6.53 L10.46,9.2 M6.95,9.2 L9.62,9.2 L9.62,6.57 C8.25080196,6.77973172 7.1838138,7.86708225 7,9.24 M10.51,12.74 C11.8963822,12.5498011 12.9850046,11.4570862 13.17,10.07 L10.46,10.07 L10.46,12.74 M9.62,12.74 L9.62,10.07 L7,10.07 C7.18929806,11.4586673 8.28133269,12.5507019 9.67,12.74 M11,2.7 L9.12,2.7 L9.12,4.38 C6.88820416,4.75990117 5.13990117,6.50820416 4.76,8.74 L3.08,8.74 L3.08,10.57 L4.76,10.57 C5.13708511,12.80325 6.88674999,14.5529149 9.12,14.93 L9.12,16.61 L11,16.61 L11,14.93 C13.2317958,14.5500988 14.9800988,12.8017958 15.36,10.57 L17,10.57 L17,8.74 L15.32,8.74 C14.9397395,6.52302723 13.213374,4.78067684 11,4.38 L11,2.7 Z M11,8.7 L11,7.21 C11.7057502,7.47361407 12.2610194,8.03253639 12.52,8.74 L11,8.7 Z M7.63,8.7 C7.89575308,7.99338923 8.45338923,7.43575308 9.16,7.17 L9.16,8.74 L7.63,8.7 Z M11,10.57 L12.52,10.57 C12.2610194,11.2774636 11.7057502,11.8363859 11,12.1 L11,10.57 Z M7.63,10.57 L9.16,10.57 L9.16,12.1 C8.45338923,11.8342469 7.89575308,11.2766108 7.63,10.57 L7.63,10.57 Z" id="Shape" fill="#153B4D"></path>
        </g>
    </g>
</svg>