<?xml version="1.0" encoding="UTF-8"?>
<svg width="36px" height="36px" viewBox="0 0 36 36" version="1.1" xmlns="http://www.w3.org/2000/svg" xmlns:xlink="http://www.w3.org/1999/xlink">
    <!-- Generator: Sketch 61 (89581) - https://sketch.com -->
    <title>map_Location_default</title>
    <desc>Created with Sketch.</desc>
    <defs>
        <linearGradient x1="-25.4369877%" y1="103.351287%" x2="74.3589826%" y2="12.8067026%" id="linearGradient-1">
            <stop stop-color="#231F20" offset="0%"></stop>
            <stop stop-color="#3A3637" stop-opacity="0.9" offset="32%"></stop>
            <stop stop-color="#807E7F" stop-opacity="0.58" offset="62%"></stop>
            <stop stop-color="#F6F6F6" stop-opacity="0.04" offset="91%"></stop>
            <stop stop-color="#FFFFFF" stop-opacity="0" offset="93%"></stop>
        </linearGradient>
        <linearGradient x1="49.9932417%" y1="0.0681663258%" x2="49.9932417%" y2="96.2167689%" id="linearGradient-2">
            <stop stop-color="#FFFFFF" offset="0%"></stop>
            <stop stop-color="#2D83A8" offset="0%"></stop>
            <stop stop-color="#2A799A" offset="36%"></stop>
            <stop stop-color="#22627D" offset="93%"></stop>
        </linearGradient>
    </defs>
    <g id="map_Location_default" stroke="none" stroke-width="1" fill="none" fill-rule="evenodd">
        <g id="Artboard-1-copy-6" transform="translate(8.000000, 1.000000)" fill-rule="nonzero">
            <polygon id="Path" fill="url(#linearGradient-1)" points="10.04 33.07 25.73 21.78 17.36 16.36 10.04 32.21"></polygon>
            <path d="M10,31 C7.5,26.31 1.87,15 1.8799867,13 C1.8799867,13 1.8799867,10.5 1.8799867,9.26 C1.8799867,7.58 3.73,7 5.31,7 C5.86228475,7 6.31,6.55228475 6.31,6 C6.31,4.7 6.67,1.66 10,1.66 C12.48,1.66 13.9,3.32 13.9,6.2 C13.9,6.75228475 14.3477153,7.2 14.9,7.2 C17.02,7.2 18.2,7.93 18.2,9.25 C18.25,9.92 18.2,10.85 18.2,11.75 C18.2,12.2 18.2,12.63 18.2,13.02 C18.2,15.02 12.2,26.74 10.2,30.59 L10,31 Z" id="Path" fill="url(#linearGradient-2)"></path>
            <path d="M10,2.65 C12.39,2.65 12.89,4.58 12.89,6.19 C12.89,7.2945695 13.7854305,8.19 14.89,8.19 C15.75,8.19 17.2,8.33 17.2,9.24 L17.2,9.41 C17.25,9.95 17.2,10.89 17.2,11.72 C17.2,12.17 17.2,12.62 17.2,12.98 C17.1,14.31 14.68,19.63 9.98,28.79 C7.29,23.63 2.98,14.73 2.88,12.97 C2.88,12.97 2.88,10.52 2.88,9.3 L2.88,9.24 C2.88,8.24 4.41,7.99 5.31,7.99 C6.4145695,7.99 7.31,7.0945695 7.31,5.99 C7.31,4.47 7.78,2.65 10,2.65 M10,0.65 C6.91,0.65 5.31,2.91 5.31,5.99 C2.66,5.99 0.88,7.29 0.88,9.24 C0.88,10.52 0.88,13.01 0.88,13.01 C0.88,15.7 8.79,31.01 10.04,33.07 C11.04,31.07 19.2,15.75 19.2,13.01 C19.2,11.84 19.28,10.19 19.2,9.24 C19.2,7.8 18.2,6.24 14.89,6.24 C14.89,2.85 13.05,0.7 10,0.7 L10,0.65 Z" id="Shape" fill="#76A9BE"></path>
            <path d="M10,1.65 C12.48,1.65 13.89,3.31 13.89,6.19 L13.89,7.19 L14.89,7.19 C17.02,7.19 18.2,7.92 18.2,9.24 L18.2,9.32 C18.25,9.91 18.2,10.84 18.2,11.74 C18.2,12.19 18.2,12.62 18.2,13.01 C18.2,15.01 12.2,26.74 10.2,30.58 L10,31 C7.5,26.36 1.87,15 1.8799867,13 C1.8799867,13 1.8799867,10.52 1.8799867,9.25 C1.8799867,7.58 3.73,7 5.31,7 L6.31,7 L6.31,6 C6.31,4.7 6.67,1.66 10,1.66 M10,0.66 C6.91,0.66 5.31,2.92 5.31,6 C2.66,6 0.88,7.3 0.88,9.25 C0.88,10.53 0.88,13.02 0.88,13.02 C0.88,15.71 8.79,31.02 10.04,33.08 C11.04,31.08 19.2,15.76 19.2,13.02 C19.2,11.85 19.28,10.2 19.2,9.25 C19.2,7.81 18.2,6.25 14.89,6.25 C14.89,2.86 13.05,0.71 10,0.71 L10,0.66 Z" id="Shape" fill="#231F20"></path>
        </g>
    </g>
</svg>