<?xml version="1.0" encoding="UTF-8"?>
<svg width="36px" height="36px" viewBox="0 0 36 36" version="1.1" xmlns="http://www.w3.org/2000/svg" xmlns:xlink="http://www.w3.org/1999/xlink">
    <!-- Generator: Sketch 61 (89581) - https://sketch.com -->
    <title>map_default_marker</title>
    <desc>Created with Sketch.</desc>
    <defs>
        <linearGradient x1="-25.4369877%" y1="103.351287%" x2="74.3589826%" y2="12.8067026%" id="linearGradient-1">
            <stop stop-color="#231F20" offset="0%"></stop>
            <stop stop-color="#3A3637" stop-opacity="0.9" offset="32%"></stop>
            <stop stop-color="#807E7F" stop-opacity="0.58" offset="62%"></stop>
            <stop stop-color="#F6F6F6" stop-opacity="0.04" offset="91%"></stop>
            <stop stop-color="#FFFFFF" stop-opacity="0" offset="93%"></stop>
        </linearGradient>
        <linearGradient x1="49.9968615%" y1="0.101282917%" x2="49.9968615%" y2="96.387576%" id="linearGradient-2">
            <stop stop-color="#DDFFAA" offset="0%"></stop>
            <stop stop-color="#A7BA70" offset="100%"></stop>
        </linearGradient>
    </defs>
    <g id="map_default_marker" stroke="none" stroke-width="1" fill="none" fill-rule="evenodd">
        <g id="Artboard-1-copy-8" transform="translate(8.000000, 2.000000)" fill-rule="nonzero">
            <polygon id="Path" fill="url(#linearGradient-1)" points="10.04 33.07 25.73 21.78 17.36 16.36 10.04 32.21"></polygon>
            <path d="M10,31.11 C4.77,22.05 0,10.34 2.76,5.12 C4.37,2.12 7.61,1.49 10.04,1.49 C12.47,1.49 15.71,2.12 17.31,5.12 C20.1,10.34 15.3,22.05 10,31.11 Z" id="Path" fill="url(#linearGradient-2)"></path>
            <path d="M10,2.49 C13.14,2.49 15.29,3.49 16.39,5.59 C18.74,9.91 15.08,20 10,29.09 C5,20 1.34,9.91 3.65,5.59 C4.75,3.53 6.9,2.49 10.04,2.49 M10.04,0.49 C6.16,0.49 3.33,1.93 1.88,4.65 C-2.12,12.24 8.06,29.8 10.04,33.07 C12.04,29.8 22.24,12.24 18.2,4.65 C16.74,1.93 13.92,0.49 10,0.49 L10.04,0.49 Z" id="Shape" fill="#FFFFFF"></path>
            <path d="M10,1.49 C12.43,1.49 15.67,2.12 17.27,5.12 C20.06,10.34 15.27,22.05 10,31.12 C4.77,22.05 0,10.34 2.76,5.12 C4.37,2.12 7.6,1.49 10.04,1.49 M10.04,0.49 C6.16,0.49 3.33,1.93 1.88,4.65 C-2.12,12.24 8.06,29.8 10.04,33.07 C12.04,29.8 22.24,12.24 18.2,4.65 C16.74,1.93 13.92,0.49 10,0.49 L10.04,0.49 Z" id="Shape" fill="#231F20"></path>
        </g>
    </g>
</svg>