<?xml version="1.0" encoding="UTF-8"?>
<svg width="36px" height="37px" viewBox="0 0 36 37" version="1.1" xmlns="http://www.w3.org/2000/svg" xmlns:xlink="http://www.w3.org/1999/xlink">
    <!-- Generator: Sketch 61 (89581) - https://sketch.com -->
    <title>map_problem_default</title>
    <desc>Created with Sketch.</desc>
    <defs>
        <linearGradient x1="-25.4369877%" y1="103.351287%" x2="74.3589826%" y2="12.8067026%" id="linearGradient-1">
            <stop stop-color="#231F20" offset="0%"></stop>
            <stop stop-color="#3A3637" stop-opacity="0.9" offset="32%"></stop>
            <stop stop-color="#807E7F" stop-opacity="0.58" offset="62%"></stop>
            <stop stop-color="#F6F6F6" stop-opacity="0.04" offset="91%"></stop>
            <stop stop-color="#FFFFFF" stop-opacity="0" offset="93%"></stop>
        </linearGradient>
        <linearGradient x1="50%" y1="0.102214651%" x2="50%" y2="96.5247019%" id="linearGradient-2">
            <stop stop-color="#FFFFFF" offset="0%"></stop>
            <stop stop-color="#2D83A8" offset="0%"></stop>
            <stop stop-color="#2A799A" offset="36%"></stop>
            <stop stop-color="#22627D" offset="93%"></stop>
        </linearGradient>
    </defs>
    <g id="map_problem_default" stroke="none" stroke-width="1" fill="none" fill-rule="evenodd" transform="translate(0.000000, 0.000000)">
        <g id="Artboard-1-copy-3" transform="translate(8.000000, 1.000000)" fill-rule="nonzero">
            <polygon id="Path" fill="url(#linearGradient-1)" points="10.04 33.07 25.73 21.78 17.36 16.36 10.04 32.21"></polygon>
            <path d="M10,31 C7.8,27 2.71,17.3 1.88,15.73 L1.88,6.32 C3.96258799,5.33735674 5.66355198,3.69613736 6.72,1.65 L13.5,1.65 C14.4537567,3.78942562 16.1128285,5.53674601 18.2,6.6 L18.2,15.7 C17.37,17.28 12.27,27 10,31 Z" id="Path" fill="url(#linearGradient-2)"></path>
            <path d="M7.32,2.65 L12.83,2.65 C13.8417513,4.53358598 15.353997,6.10119987 17.2,7.18 L17.2,15.45 C16.2,17.3 12.4,24.59 10.04,28.95 C7.68,24.6 3.85,17.33 2.88,15.48 L2.88,7 C4.71290344,5.98275342 6.24457035,4.49938231 7.32,2.7 M6,0.65 C6,2.17 2.42,5.54 0.92,5.54 L0.92,16 C0.92,16 8.72,30.85 10.08,33.1 C11.44,30.85 19.24,15.97 19.24,15.97 L19.24,5.82 C17.66,5.82 14.33,2.2 14.33,0.65 L6,0.65 Z" id="Shape" fill="#76A9BE"></path>
            <path d="M6.72,1.65 L13.48,1.65 C14.4459729,3.78291088 16.1111308,5.52215416 18.2,6.58 L18.2,15.7 C17.37,17.28 12.27,27 10,31 C7.8,27 2.71,17.3 1.88,15.73 L1.88,6.32 C3.96258799,5.33735674 5.66355198,3.69613736 6.72,1.65 M5.96,0.65 C5.96,2.17 2.38,5.54 0.88,5.54 L0.88,16 C0.88,16 8.68,30.85 10.04,33.1 C11.4,30.85 19.2,15.97 19.2,15.97 L19.2,5.82 C17.62,5.82 14.29,2.2 14.29,0.65 L5.96,0.65 Z" id="Shape" fill="#231F20"></path>
        </g>
    </g>
</svg>