<?xml version="1.0" encoding="UTF-8"?>
<svg width="36px" height="36px" viewBox="0 0 36 36" version="1.1" xmlns="http://www.w3.org/2000/svg" xmlns:xlink="http://www.w3.org/1999/xlink">
    <!-- Generator: Sketch 61 (89581) - https://sketch.com -->
    <title>map_Asset_default</title>
    <desc>Created with Sketch.</desc>
    <defs>
        <linearGradient x1="-25.4369877%" y1="103.351287%" x2="74.3589826%" y2="12.8067026%" id="linearGradient-1">
            <stop stop-color="#231F20" offset="0%"></stop>
            <stop stop-color="#3A3637" stop-opacity="0.9" offset="32%"></stop>
            <stop stop-color="#807E7F" stop-opacity="0.58" offset="62%"></stop>
            <stop stop-color="#F6F6F6" stop-opacity="0.04" offset="91%"></stop>
            <stop stop-color="#FFFFFF" stop-opacity="0" offset="93%"></stop>
        </linearGradient>
        <linearGradient x1="50%" y1="0.102704553%" x2="50%" y2="96.5080452%" id="linearGradient-2">
            <stop stop-color="#FFFFFF" offset="0%"></stop>
            <stop stop-color="#2D83A8" offset="0%"></stop>
            <stop stop-color="#2A799A" offset="36%"></stop>
            <stop stop-color="#22627D" offset="93%"></stop>
        </linearGradient>
    </defs>
    <g id="map_Asset_default" stroke="none" stroke-width="1" fill="none" fill-rule="evenodd">
        <g id="Artboard-1-copy-10" transform="translate(8.000000, 1.000000)" fill-rule="nonzero">
            <polygon id="Path" fill="url(#linearGradient-1)" points="10.04 33.07 25.73 21.78 17.36 16.36 10.04 32.21"></polygon>
            <path d="M10,31 C7.8,27 2.71,17.3 1.88,15.73 L1.88,6.14 L10,1.79 L18.2,6.4 L18.2,15.7 C17.37,17.28 12.27,27 10,31 Z" id="Path" fill="url(#linearGradient-2)"></path>
            <path d="M10,2.93 L17.2,7 L17.2,15.46 C16.2,17.31 12.4,24.6 10.04,28.96 C7.68,24.61 3.85,17.34 2.88,15.49 L2.88,6.74 L10,2.93 M10,0.65 L0.88,5.54 L0.88,16 C0.88,16 8.68,30.85 10.04,33.1 C11.4,30.85 19.2,15.97 19.2,15.97 L19.2,5.82 L10,0.65 Z" id="Shape" fill="#76A9BE"></path>
            <path d="M10,1.79 L18.2,6.4 L18.2,15.7 C17.37,17.28 12.27,27 10,31 C7.8,27 2.71,17.3 1.88,15.73 L1.88,6.14 L10,1.79 M10,0.65 L0.88,5.54 L0.88,16 C0.88,16 8.68,30.85 10.04,33.1 C11.4,30.85 19.2,15.97 19.2,15.97 L19.2,5.82 L10,0.65 Z" id="Shape" fill="#231F20"></path>
        </g>
    </g>
</svg>