<?xml version="1.0" encoding="UTF-8"?>
<svg width="36px" height="36px" viewBox="0 0 36 36" version="1.1" xmlns="http://www.w3.org/2000/svg" xmlns:xlink="http://www.w3.org/1999/xlink">
    <!-- Generator: Sketch 61 (89581) - https://sketch.com -->
    <title>map_CI_default</title>
    <desc>Created with Sketch.</desc>
    <defs>
        <linearGradient x1="-25.4369877%" y1="103.351287%" x2="74.3589826%" y2="12.8067026%" id="linearGradient-1">
            <stop stop-color="#231F20" offset="0%"></stop>
            <stop stop-color="#3A3637" stop-opacity="0.9" offset="32%"></stop>
            <stop stop-color="#807E7F" stop-opacity="0.58" offset="62%"></stop>
            <stop stop-color="#F6F6F6" stop-opacity="0.04" offset="91%"></stop>
            <stop stop-color="#FFFFFF" stop-opacity="0" offset="93%"></stop>
        </linearGradient>
        <linearGradient x1="49.9388005%" y1="0.102214651%" x2="49.9388005%" y2="96.5247019%" id="linearGradient-2">
            <stop stop-color="#FFFFFF" offset="0%"></stop>
            <stop stop-color="#2D83A8" offset="0%"></stop>
            <stop stop-color="#2A799A" offset="36%"></stop>
            <stop stop-color="#22627D" offset="93%"></stop>
        </linearGradient>
    </defs>
    <g id="map_CI_default" stroke="none" stroke-width="1" fill="none" fill-rule="evenodd">
        <g id="Artboard-1-copy-9" transform="translate(8.000000, 1.000000)" fill-rule="nonzero">
            <polygon id="Path" fill="url(#linearGradient-1)" points="10.04 33.07 25.73 21.78 17.36 16.36 10.04 32.21"></polygon>
            <path d="M10,31 C7.8,27 2.71,17.3 1.88,15.73 L1.88,2.54 C1.88,2 2.59,1.65 2.96,1.65 L3.96,1.65 L3.96,2.46 C3.96,3.01228475 4.40771525,3.46 4.96,3.46 L7.63,3.46 C7.89521649,3.46 8.1495704,3.35464316 8.33710678,3.16710678 C8.52464316,2.9795704 8.63,2.72521649 8.63,2.46 L8.63,1.66 L11.74,1.66 L11.74,2.46 C11.74,3.01228475 12.1877153,3.46 12.74,3.46 L15.31,3.46 C15.8622847,3.46 16.31,3.01228475 16.31,2.46 L16.31,1.66 L17.31,1.66 C17.82,1.66 18.22,2.29 18.22,2.83 L18.22,15.7 C17.37,17.28 12.27,27 10,31 Z" id="Path" fill="url(#linearGradient-2)"></path>
            <path d="M10.75,2.65 C10.853084,3.67580259 11.7190439,4.4551665 12.75,4.45 L15.32,4.45 C16.1672349,4.44662484 16.920417,3.90978225 17.2,3.11 L17.2,15.45 C16.2,17.3 12.4,24.59 10.04,28.95 C7.68,24.6 3.85,17.33 2.88,15.48 L2.88,2.69 L2.96,2.69 L2.96,2.69 C3.06308396,3.71580259 3.92904386,4.4951665 4.96,4.49 L7.63,4.49 C8.66095614,4.4951665 9.52691604,3.71580259 9.63,2.69 L10.76,2.69 M17.3,0.69 L15.3,0.69 L15.3,2.49 L12.74,2.49 L12.74,0.65 L7.63,0.65 L7.63,2.45 L5,2.45 L5,0.65 L3,0.65 C1.90806373,0.629330264 0.984314612,1.45286132 0.88,2.54 L0.88,16 C0.88,16 8.68,30.85 10.04,33.1 C11.4,30.85 19.2,15.97 19.2,15.97 L19.2,2.82 C19.2417424,1.70382221 18.4024476,0.750277848 17.29,0.65 L17.3,0.69 Z" id="Shape" fill="#76A9BE"></path>
            <path d="M17.29,1.65 C17.8,1.65 18.2,2.28 18.2,2.82 L18.2,15.7 C17.37,17.28 12.27,27 10,31 C7.8,27 2.71,17.3 1.88,15.73 L1.88,2.54 C1.88,2 2.59,1.65 2.96,1.65 L3.96,1.65 L3.96,3.45 L8.62,3.45 L8.62,1.65 L11.73,1.65 L11.73,3.45 L16.3,3.45 L16.3,1.65 L17.3,1.65 M17.3,0.65 L15.3,0.65 L15.3,2.45 L12.74,2.45 L12.74,0.65 L7.63,0.65 L7.63,2.45 L5,2.45 L5,0.65 L3,0.65 C1.90806373,0.629330264 0.984314612,1.45286132 0.88,2.54 L0.88,16 C0.88,16 8.68,30.85 10.04,33.1 C11.4,30.85 19.2,15.97 19.2,15.97 L19.2,2.82 C19.2417424,1.70382221 18.4024476,0.750277848 17.29,0.65 L17.3,0.65 Z" id="Shape" fill="#231F20"></path>
        </g>
    </g>
</svg>